<svg width="57" height="52" viewBox="0 0 57 52" fill="none" xmlns="http://www.w3.org/2000/svg">
<path d="M23.6965 5.12672C28.7988 4.56373 33.9306 5.88893 38.1222 8.85206C41.5219 11.2556 44.1125 14.6016 45.5947 18.4465L34.2685 15.8826C32.904 15.6707 31.6262 16.6047 31.4142 17.9693C31.2021 19.3335 32.1364 20.6113 33.5007 20.8233L49.6933 23.3394C51.0832 23.5554 52.6064 22.4319 52.8722 21.0571L56.0908 4.40333C56.3527 3.04762 55.4662 1.73634 54.1105 1.47438C52.7548 1.21242 51.4435 2.09889 51.1816 3.4546L49.2194 14.3013C47.3178 10.5271 44.5099 7.24464 41.0085 4.7693C35.8188 1.1006 29.4653 -0.54027 23.1481 0.156995C16.831 0.854017 10.988 3.84083 6.72308 8.55275C2.45843 13.2649 0.0670737 19.3757 0.00139983 25.7307C-0.0645181 32.086 2.19964 38.2451 6.36615 43.0444C10.5324 47.8438 16.3124 50.9507 22.6137 51.7786C28.915 52.6062 35.3012 51.0974 40.5656 47.5369C45.8303 43.9763 49.6083 38.6111 51.186 32.4546C51.5287 31.117 50.7223 29.7549 49.3849 29.4121C48.0475 29.0693 46.6852 29.8757 46.3425 31.2134C45.0683 36.1858 42.0168 40.5195 37.7646 43.3953C33.5126 46.271 28.3544 47.4898 23.2648 46.8211C18.1752 46.1526 13.507 43.6431 10.1418 39.7666C6.77679 35.8901 4.94793 30.9155 5.00116 25.7825C5.05413 20.6497 6.98553 15.7139 10.4304 11.908C13.8749 8.10206 18.5942 5.68971 23.6965 5.12672Z" fill="#1A1919"/>
</svg>
