<svg width="381" height="340" viewBox="0 0 381 340" fill="none" xmlns="http://www.w3.org/2000/svg">
<path fill-rule="evenodd" clip-rule="evenodd" d="M4.88703 151.57C-1.62901 162.856 -1.62901 176.763 4.88703 188.05L81.866 321.38C88.382 332.667 100.425 339.62 113.459 339.62H267.414C280.448 339.62 292.491 332.667 299.007 321.38L375.986 188.05C382.502 176.763 382.502 162.856 375.986 151.57L299.007 18.24C292.491 6.95244 280.448 0 267.414 0H113.459C100.425 0 88.382 6.95244 81.866 18.24L4.88703 151.57ZM101.611 29.64L24.6322 162.97C22.1885 167.203 22.1885 172.417 24.6333 176.65L101.611 309.98C104.055 314.212 108.571 316.82 113.459 316.82H267.414C272.302 316.82 276.818 314.212 279.262 309.98L356.24 176.65C358.684 172.417 358.684 167.203 356.24 162.97L279.262 29.64C276.818 25.4073 272.302 22.8 267.414 22.8H113.459C108.571 22.8 104.055 25.4073 101.611 29.64Z" fill="white"/>
</svg>
