<svg width="460" height="170" viewBox="0 0 460 170" fill="none" xmlns="http://www.w3.org/2000/svg">
<path fill-rule="evenodd" clip-rule="evenodd" d="M360.866 13.7848C369.706 13.7848 376.022 16.2883 380.44 20.1831C387.411 26.3251 390.6 34.2627 397.827 63.4373L406.962 100.577H364.654L366.067 106.412C374.666 141.769 376.825 147.186 380.124 150.093C382.019 151.763 384.23 152.319 387.072 152.319C392.348 152.319 395.185 149.897 395.278 145.056L395.28 144.809C395.28 141.469 394.017 134.515 389.281 115.043H409.488L409.929 116.729C413.706 131.329 415.171 140.602 415.171 147.033C415.171 162.333 405.699 169.845 388.65 169.845C378.23 169.845 371.285 167.619 365.917 162.89L365.428 162.452C357.516 155.206 352.713 143.746 340.028 91.6753L339.214 88.3698C332.859 62.4513 330.241 49.0027 330.241 39.6561C330.241 24.912 339.08 13.7848 360.866 13.7848ZM172.7 13.7848C183.118 13.7848 190.064 16.8445 194.8 21.0173L195.12 21.3038C200.319 26.029 204.051 33.0792 208.692 51.6183L236.791 167.341H217.533L217.153 165.667C217.143 165.616 217.132 165.564 217.121 165.509L217.105 165.423C216.846 164.04 216.464 160.43 213.428 131.733H210.902V139.244C210.902 162.89 204.588 169.287 190.065 169.287C183.573 169.287 179.2 167.421 176.056 164.732L175.856 164.56C170.49 159.83 167.017 152.596 161.964 129.23L161.476 126.915C159.013 115.091 158.176 108.937 158.176 104.75C158.176 92.2322 165.438 84.4426 183.75 84.4426H194.485L187.169 54.9797C183.532 40.4348 182.106 36.5657 180.215 34.4143L180.085 34.2702L179.953 34.1292C179.93 34.1061 179.908 34.0831 179.886 34.0603L179.75 33.9253C179.704 33.8809 179.658 33.8369 179.612 33.7935L179.472 33.6641C179.425 33.6214 179.377 33.5789 179.329 33.5366C178.067 32.4225 175.856 31.3103 173.014 31.3103C167.112 31.3103 164.571 34.0045 164.492 38.5968L164.49 38.8206C164.49 42.7154 166.069 49.6699 170.49 68.3087H149.651L149.227 66.5586C145.722 51.995 143.968 42.7296 143.968 36.0392C143.968 24.3559 151.861 13.7848 172.7 13.7848ZM237.419 0.155518L241.207 16.2897H259.52L263.308 33.8152H245.628L262.329 102.789C271.74 141.383 273.885 145.783 276.885 148.426C278.78 150.094 281.305 150.651 284.146 150.651C286.672 150.651 289.514 150.373 292.039 149.816L296.143 167.064C291.723 168.177 286.672 169.012 281.305 169.012C272.149 169.012 265.202 167.064 260.15 162.614C254.784 157.885 251.627 151.207 245.313 125.615L223.211 33.8152H213.423L209.635 17.1239C218.995 17.1239 222.497 14.6792 222.578 8.98324L222.58 8.77923C222.58 7.38797 222.264 4.88445 221.316 0.155518H237.419ZM292.352 0.155518L296.141 16.2897H317.61L321.398 33.8152H300.561L316.964 101.559C326.629 141.29 328.786 145.755 331.817 148.426C333.712 150.094 336.237 150.651 339.079 150.651C341.605 150.651 344.446 150.373 346.972 149.816L351.077 167.064C346.657 168.177 341.605 169.012 336.237 169.012C327.082 169.012 320.136 167.064 315.084 162.614L314.764 162.327C309.589 157.61 306.433 150.695 300.245 125.615L278.145 33.8152H268.358L264.569 17.1239C273.928 17.1239 277.43 14.6792 277.511 8.98324L277.512 8.77923C277.512 7.38797 277.197 4.88445 276.251 0.155518H292.352ZM99.7691 13.7848C106.714 13.7848 111.45 15.7322 114.924 18.7918C121.238 24.3559 126.289 35.2041 132.604 62.7453L157.861 167.341H135.446L110.188 62.7453L109.586 60.238C105.859 44.8662 103.699 38.9472 100.4 36.0392C98.8214 34.648 96.9281 33.8138 94.0865 33.8138C85.5615 33.8138 83.6668 40.4912 83.6668 52.1743L83.67 52.7182C83.7386 60.7762 85.3437 72.6171 89.6661 90.841L108.293 167.341H85.8768L60.6192 62.7453L60.3563 61.6742C56.0975 44.42 53.6168 38.4924 50.8314 36.0392C49.2526 34.648 47.6732 33.8138 44.8319 33.8138C35.9922 33.8138 34.0976 39.9331 34.0976 53.2856C34.0976 61.9102 36.6234 76.097 41.0438 94.7358L58.7245 167.341H36.3078L0 16.2883H19.5751L19.8907 17.6796L19.9801 18.1674L19.9961 18.2622C20.2589 19.8514 20.6526 23.6156 23.9944 55.5122H26.5203V47.4453C26.5203 22.9646 30.9407 13.7848 48.9377 13.7848C55.4286 13.7848 59.4988 15.3849 62.6298 18.063L62.8282 18.2357C67.2487 22.1305 69.1442 26.3023 72.9313 55.7901H75.458V45.7751C75.458 24.0769 79.8775 13.7848 99.7691 13.7848ZM442.321 15.4541L442.888 15.456C443.645 15.4645 444.404 15.5091 445.162 15.7321L451.792 43.5497C449.58 42.9936 447.372 42.7154 444.845 42.7154C437.984 42.7154 435.436 47.0583 435.374 54.6723L435.374 54.9558C435.374 61.9102 436.951 71.3679 440.109 84.9987L460 167.341H437.585L401.276 16.2882H420.851L421.238 18.0041C421.504 19.2786 421.759 21.6739 424.956 51.6183H427.796V43.5497C427.796 26.5812 430.323 15.4541 442.321 15.4541ZM196.695 93.0681H191.011C180.592 93.0681 178.382 97.2411 178.699 103.639L178.824 104.994C179.135 108.074 179.744 112.509 181.438 120.032L181.66 121.009C181.851 121.838 182.054 122.703 182.27 123.605L183.038 126.759C183.293 127.793 183.536 128.774 183.77 129.705L184.001 130.619C187.143 143.041 188.423 146.075 189.851 147.633L189.955 147.743C190.076 147.869 190.198 147.986 190.324 148.098L190.38 148.148C191.643 149.261 193.221 149.816 195.431 149.816C201.746 149.816 203.955 144.532 203.955 134.239L203.952 133.705C203.838 126.067 201.335 112.153 197.326 95.8499L196.695 93.0681ZM359.917 31.3119C354.235 31.3119 351.393 34.0935 351.393 38.8222L351.396 39.1301C351.484 44.2639 353.78 55.1464 362.443 91.6769V92.2338H382.965L377.599 70.8135L376.097 64.5652C369.835 38.6744 368.537 35.8463 365.601 33.2593C364.337 32.147 362.443 31.3119 359.917 31.3119Z" fill="white"/>
</svg>
