<svg width="262" height="247" viewBox="0 0 262 247" fill="none" xmlns="http://www.w3.org/2000/svg">
<path d="M74.1561 12.0899C74.1561 5.79433 79.2605 0.689941 85.5561 0.689941H176.756C183.052 0.689941 188.156 5.79433 188.156 12.0899C188.156 18.3855 183.052 23.4899 176.756 23.4899H85.5561C79.2605 23.4899 74.1561 18.3855 74.1561 12.0899Z" fill="white"/>
<path d="M85.5561 224.13C79.2605 224.13 74.1561 229.234 74.1561 235.53C74.1561 241.826 79.2605 246.93 85.5561 246.93H176.756C183.052 246.93 188.156 241.826 188.156 235.53C188.156 229.234 183.052 224.13 176.756 224.13H85.5561Z" fill="white"/>
<path d="M199.616 18.2609C205.069 15.1125 212.04 16.9806 215.189 22.4334L259.798 99.6985C262.946 105.151 261.078 112.124 255.625 115.271C250.173 118.419 243.2 116.551 240.053 111.098L195.444 33.8334C192.295 28.3806 194.163 21.4092 199.616 18.2609Z" fill="white"/>
<path d="M66.6904 33.8334C69.8388 28.3806 67.9707 21.4092 62.5179 18.2609C57.065 15.1125 50.0925 16.9806 46.9453 22.4334L2.3361 99.6985C-0.812258 105.151 1.05583 112.124 6.50868 115.271C11.9615 118.419 18.9329 116.551 22.0813 111.098L66.6904 33.8334Z" fill="white"/>
<path d="M199.616 226.52C205.069 229.669 212.04 227.8 215.189 222.348L259.798 145.083C262.946 139.63 261.078 132.657 255.625 129.51C250.173 126.362 243.2 128.23 240.053 133.683L195.444 210.948C192.295 216.4 194.163 223.372 199.616 226.52Z" fill="white"/>
<path d="M66.6904 210.948C69.8388 216.4 67.9707 223.372 62.5179 226.52C57.065 229.669 50.0925 227.8 46.9453 222.348L2.3361 145.083C-0.812258 139.63 1.05583 132.657 6.50868 129.51C11.9615 126.362 18.9329 128.23 22.0813 133.683L66.6904 210.948Z" fill="white"/>
</svg>
