<svg width="57" height="52" viewBox="0 0 57 52" fill="none" xmlns="http://www.w3.org/2000/svg">
<path d="M24.1281 5.12672C29.2304 4.56373 34.3622 5.88893 38.5539 8.85206C41.9535 11.2556 44.5441 14.6016 46.0263 18.4465L34.7001 15.8826C33.3356 15.6707 32.0578 16.6047 31.8459 17.9693C31.6337 19.3335 32.5681 20.6113 33.9323 20.8233L50.1249 23.3394C51.5148 23.5554 53.038 22.4319 53.3039 21.0571L56.5224 4.40333C56.7844 3.04762 55.8979 1.73634 54.5422 1.47438C53.1865 1.21242 51.8752 2.09889 51.6132 3.4546L49.6511 14.3013C47.7494 10.5271 44.9416 7.24464 41.4401 4.7693C36.2504 1.1006 29.8969 -0.54027 23.5798 0.156995C17.2626 0.854017 11.4196 3.84083 7.15472 8.55275C2.89007 13.2649 0.498714 19.3757 0.43304 25.7307C0.367122 32.086 2.63128 38.2451 6.79779 43.0444C10.964 47.8438 16.7441 50.9507 23.0453 51.7786C29.3466 52.6062 35.7328 51.0974 40.9972 47.5369C46.2619 43.9763 50.04 38.6111 51.6176 32.4546C51.9604 31.117 51.154 29.7549 49.8166 29.4121C48.4792 29.0693 47.1169 29.8757 46.7741 31.2134C45.4999 36.1858 42.4484 40.5195 38.1962 43.3953C33.9443 46.271 28.7861 47.4898 23.6965 46.8211C18.6069 46.1526 13.9387 43.6431 10.5734 39.7666C7.20843 35.8901 5.37957 30.9155 5.4328 25.7825C5.48577 20.6497 7.41717 15.7139 10.862 11.908C14.3066 8.10206 19.0258 5.68971 24.1281 5.12672Z" fill="white"/>
</svg>
