<svg width="31" height="24" viewBox="0 0 31 24" fill="none" xmlns="http://www.w3.org/2000/svg">
<path d="M3.29805 13.1613C2.40336 12.5136 1.15295 12.7137 0.505174 13.6084C-0.142601 14.5031 0.0575593 15.7535 0.952245 16.4013C4.06976 18.6584 4.625 19 8.71175 22.8216C9.97192 24 11.125 23.9939 12.349 22.8428C19.625 16 23.625 10 29.4258 3.51935C30.2649 2.80102 30.3628 1.53848 29.6445 0.699389C28.9261 -0.139705 27.6636 -0.237605 26.8245 0.480723C21.125 6.5 15.7383 12.9629 11.125 21C10.9126 21.37 10.625 22 10.125 21C8.2876 18.2666 6.12945 14.7261 3.29805 13.1613Z" fill="white"/>
</svg>
